<svg width="18" height="12" viewBox="0 0 18 12" fill="none" xmlns="http://www.w3.org/2000/svg">
<g id="United Kingdom (GB)" clip-path="url(#clip0_6_397)">
<path id="Vector" d="M0 0H18V12H0V0Z" fill="#012169"/>
<path id="Vector_2" d="M2.10937 0L8.97187 4.525L15.8062 0H18V1.55L11.25 6.025L18 10.475V12H15.75L9 7.525L2.27812 12H0V10.5L6.72187 6.05L0 1.6V0H2.10937Z" fill="white"/>
<path id="Vector_3" d="M11.925 7.025L18 11V12L10.3781 7.025H11.925ZM6.75 7.525L6.91875 8.4L1.51875 12H0L6.75 7.525ZM18 0V0.075L10.9969 4.775L11.0531 3.675L16.5937 0H18ZM0 0L6.72187 4.4H5.03437L0 1.05V0Z" fill="#C8102E"/>
<path id="Vector_4" d="M6.77812 0V12H11.2781V0H6.77812ZM0 4V8H18V4H0Z" fill="white"/>
<path id="Vector_5" d="M0 4.825V7.225H18V4.825H0ZM7.67812 0V12H10.3781V0H7.67812Z" fill="#C8102E"/>
</g>
<defs>
<clipPath id="clip0_6_397">
<rect width="18" height="12" fill="white"/>
</clipPath>
</defs>
</svg>
